<svg width="18" xmlns="http://www.w3.org/2000/svg" height="18" fill="none"><g style="fill: rgb(0, 0, 0);"><path d="M9.445,17.443L9.445,17.443ZL9.445,17.443ZL9.445,17.443ZL9.445,17.443ZL9.305,17.445C9.296,17.442,9.291,17.444,9.286,17.449L9.284,17.456L9.271,17.777L9.274,17.792L9.282,17.802L9.360,17.858L9.371,17.861L9.380,17.858L9.458,17.802L9.467,17.790L9.470,17.777L9.445,17.443ZC9.455,17.449,9.451,17.445,9.445,17.443ZM9.644,17.359L9.644,17.359ZL9.495,17.430L9.487,17.438L9.485,17.446L9.499,17.768L9.502,17.777L9.509,17.782L9.659,17.852C9.669,17.855,9.676,17.853,9.681,17.846L9.684,17.836L9.644,17.359ZC9.656,17.366,9.651,17.361,9.644,17.359ZM9.107,17.360C9.100,17.356,9.091,17.358,9.107,17.360ZL9.107,17.360ZL9.057,17.836C9.058,17.845,9.062,17.851,9.070,17.854L9.081,17.852L9.232,17.783L9.239,17.776L9.242,17.768L9.255,17.446L9.253,17.437L9.245,17.429Z" fill="none" style="fill: none;" class="fills"/><path d="M9.000,10.591L12.977,14.569C13.417,15.008,14.129,15.008,14.569,14.569C15.008,14.129,15.008,13.417,14.569,12.977L10.590,9.000L14.568,5.023C15.007,4.583,15.007,3.871,14.568,3.432C14.128,2.992,13.416,2.993,12.976,3.432L9.000,7.409L5.023,3.432C4.740,3.139,4.322,3.022,3.929,3.125C3.535,3.227,3.228,3.535,3.125,3.928C3.022,4.321,3.139,4.739,3.431,5.022L7.410,9.000L3.432,12.978C3.140,13.261,3.023,13.679,3.126,14.072C3.229,14.465,3.536,14.773,3.930,14.875C4.323,14.978,4.741,14.861,5.024,14.568Z" fill-rule="evenodd" style="fill: rgb(0, 0, 0);" class="fills"/></g></svg>