<svg width="34" xmlns="http://www.w3.org/2000/svg" height="34" id="screenshot-05433823-5692-805c-8006-14f533ac3f83" viewBox="0 0 34 34" xmlns:xlink="http://www.w3.org/1999/xlink" fill="none" version="1.1"><g id="shape-05433823-5692-805c-8006-14f533ac3f83" width="24" height="24" rx="0" ry="0" style="fill: rgb(0, 0, 0);"><g id="shape-05433823-5692-805c-8006-14f533ac3f8a" style="display: none;"><g class="fills" id="fills-05433823-5692-805c-8006-14f533ac3f8a"><rect width="34" height="34" x="0" transform="matrix(1.000000, 0.000000, 0.000000, 1.000000, 0.000000, 0.000000)" style="fill: rgb(5, 118, 158); fill-opacity: 1;" ry="0" fill="none" rx="0" y="0"/></g></g><g id="shape-05433823-5692-805c-8006-14f533ac3f8b"><g class="fills" id="fills-05433823-5692-805c-8006-14f533ac3f8b"><path d="M18.417,14.167L4.250,14.167C3.471,14.167,2.833,14.804,2.833,15.583C2.833,16.362,3.471,17.000,4.250,17.000L18.417,17.000C19.196,17.000,19.833,16.362,19.833,15.583C19.833,14.804,19.196,14.167,18.417,14.167ZM18.417,8.500L4.250,8.500C3.471,8.500,2.833,9.137,2.833,9.917C2.833,10.696,3.471,11.333,4.250,11.333L18.417,11.333C19.196,11.333,19.833,10.696,19.833,9.917C19.833,9.137,19.196,8.500,18.417,8.500ZM25.500,19.833L25.500,15.583C25.500,14.804,24.863,14.167,24.083,14.167C23.304,14.167,22.667,14.804,22.667,15.583L22.667,19.833L18.417,19.833C17.637,19.833,17.000,20.471,17.000,21.250C17.000,22.029,17.637,22.667,18.417,22.667L22.667,22.667L22.667,26.917C22.667,27.696,23.304,28.333,24.083,28.333C24.863,28.333,25.500,27.696,25.500,26.917L25.500,22.667L29.750,22.667C30.529,22.667,31.167,22.029,31.167,21.250C31.167,20.471,30.529,19.833,29.750,19.833ZM4.250,22.667L12.750,22.667C13.529,22.667,14.167,22.029,14.167,21.250C14.167,20.471,13.529,19.833,12.750,19.833L4.250,19.833C3.471,19.833,2.833,20.471,2.833,21.250C2.833,22.029,3.471,22.667,4.250,22.667Z" style="fill: rgb(5, 118, 158); fill-opacity: 1;"/></g></g></g></svg>