<svg width="24" xmlns="http://www.w3.org/2000/svg" height="24" id="screenshot-2fe9ca1c-6114-80b0-8006-1313a7e2d245" viewBox="0 0 24 24" xmlns:xlink="http://www.w3.org/1999/xlink" fill="none" version="1.1"><g id="shape-2fe9ca1c-6114-80b0-8006-1313a7e2d245" width="14" height="14" rx="0" ry="0" style="fill: rgb(0, 0, 0);"><g id="shape-2fe9ca1c-6114-80b0-8006-1313a7e45999" style="display: none;"><g class="fills" id="fills-2fe9ca1c-6114-80b0-8006-1313a7e45999"><rect width="24" height="24" x="0" transform="matrix(1.000000, 0.000000, 0.000000, 1.000000, 0.000000, 0.000000)" style="fill: rgb(5, 118, 158); fill-opacity: 1;" ry="0" fill="none" rx="0" y="0"/></g><g fill="none" id="strokes-19d1850e-b84c-8041-8006-20d1a3ab699a-2fe9ca1c-6114-80b0-8006-1313a7e45999" class="strokes"><g class="inner-stroke-shape" transform="matrix(1.000000, 0.000000, 0.000000, 1.000000, 0.000000, 0.000000)"><defs><clipPath id="inner-stroke-render-2-2fe9ca1c-6114-80b0-8006-1313a7e45999-0"><use href="#stroke-shape-render-2-2fe9ca1c-6114-80b0-8006-1313a7e45999-0"/></clipPath><rect rx="0" ry="0" x="0" y="0" width="24" height="24" id="stroke-shape-render-2-2fe9ca1c-6114-80b0-8006-1313a7e45999-0" style="fill: none; stroke-width: 1; stroke: rgb(5, 118, 158); stroke-opacity: 1;"/></defs><use href="#stroke-shape-render-2-2fe9ca1c-6114-80b0-8006-1313a7e45999-0" clip-path="url('#inner-stroke-render-2-2fe9ca1c-6114-80b0-8006-1313a7e45999-0')"/></g></g></g><g id="shape-2fe9ca1c-6114-80b0-8006-1313a7e4ed3c"><g class="fills" id="fills-2fe9ca1c-6114-80b0-8006-1313a7e4ed3c"><path d="M13.714,1.714C13.714,0.768,12.947,0.000,12.000,0.000C11.053,0.000,10.286,0.768,10.286,1.714L10.286,10.286L1.714,10.286C0.768,10.286,0.000,11.053,0.000,12.000C0.000,12.947,0.768,13.714,1.714,13.714L10.286,13.714L10.286,22.286C10.286,23.232,11.053,24.000,12.000,24.000C12.947,24.000,13.714,23.232,13.714,22.286L13.714,13.714L22.286,13.714C23.232,13.714,24.000,12.947,24.000,12.000C24.000,11.053,23.232,10.286,22.286,10.286L13.714,10.286Z" fill-rule="evenodd" clip-rule="evenodd" style="fill: rgb(5, 118, 158); fill-opacity: 1;"/></g><g fill-rule="evenodd" clip-rule="evenodd" id="strokes-19d1850e-b84c-8041-8006-20d1a3ac9235-2fe9ca1c-6114-80b0-8006-1313a7e4ed3c" class="strokes"><g class="inner-stroke-shape"><defs><clipPath id="inner-stroke-render-3-2fe9ca1c-6114-80b0-8006-1313a7e4ed3c-0"><use href="#stroke-shape-render-3-2fe9ca1c-6114-80b0-8006-1313a7e4ed3c-0"/></clipPath><path d="M13.714,1.714C13.714,0.768,12.947,0.000,12.000,0.000C11.053,0.000,10.286,0.768,10.286,1.714L10.286,10.286L1.714,10.286C0.768,10.286,0.000,11.053,0.000,12.000C0.000,12.947,0.768,13.714,1.714,13.714L10.286,13.714L10.286,22.286C10.286,23.232,11.053,24.000,12.000,24.000C12.947,24.000,13.714,23.232,13.714,22.286L13.714,13.714L22.286,13.714C23.232,13.714,24.000,12.947,24.000,12.000C24.000,11.053,23.232,10.286,22.286,10.286L13.714,10.286Z" id="stroke-shape-render-3-2fe9ca1c-6114-80b0-8006-1313a7e4ed3c-0" style="fill: none; stroke-width: 1; stroke: rgb(5, 118, 158); stroke-opacity: 1;"/></defs><use href="#stroke-shape-render-3-2fe9ca1c-6114-80b0-8006-1313a7e4ed3c-0" clip-path="url('#inner-stroke-render-3-2fe9ca1c-6114-80b0-8006-1313a7e4ed3c-0')"/></g></g></g></g></svg>