<svg width="28" xmlns="http://www.w3.org/2000/svg" height="28" id="screenshot-aa0e69f0-57f4-809c-8006-1f6622095222" viewBox="0 0 28 28" xmlns:xlink="http://www.w3.org/1999/xlink" fill="none" version="1.1"><g id="shape-aa0e69f0-57f4-809c-8006-1f6622095222" width="28" height="28" rx="0" ry="0" style="fill: rgb(0, 0, 0);"><g id="shape-aa0e69f0-57f4-809c-8006-1f66220be6af"><g class="fills" id="fills-aa0e69f0-57f4-809c-8006-1f66220be6af"><rect width="28.000000000000227" height="28" x="0" transform="matrix(1.000000, 0.000000, 0.000000, 1.000000, 0.000000, 0.000000)" style="fill: rgb(255, 255, 255); fill-opacity: 1;" ry="0" fill="none" rx="0" y="0"/></g></g><g id="shape-aa0e69f0-57f4-809c-8006-1f66220cc31c"><g class="fills" id="fills-aa0e69f0-57f4-809c-8006-1f66220cc31c"><path d="M8.900,6.775C8.900,5.566,9.631,4.478,10.750,4.021C11.870,3.564,13.154,3.829,14.000,4.693C14.846,3.829,16.130,3.564,17.250,4.021C18.369,4.478,19.100,5.566,19.100,6.775L19.100,8.900L21.225,8.900C21.929,8.900,22.500,9.471,22.500,10.175L22.500,21.438C22.500,22.948,21.288,24.178,19.777,24.200L19.698,24.200C18.187,24.178,16.975,22.948,16.975,21.438L16.975,8.900L17.825,8.900L17.825,6.775C17.825,6.023,17.331,5.361,16.610,5.146C15.890,4.932,15.114,5.216,14.702,5.845C14.800,6.146,14.850,6.459,14.850,6.775L14.850,8.900L15.700,8.900L15.700,21.438C15.700,22.506,16.115,23.478,16.793,24.200L8.900,24.200C7.022,24.200,5.500,22.678,5.500,20.800L5.500,10.175C5.500,9.471,6.071,8.900,6.775,8.900L8.900,8.900ZM13.575,6.775C13.575,5.836,12.814,5.075,11.875,5.075C10.936,5.075,10.175,5.836,10.175,6.775L10.175,8.900L13.575,8.900Z" style="fill: rgb(5, 118, 158); fill-opacity: 1;"/></g></g></g></svg>