<svg width="18" xmlns="http://www.w3.org/2000/svg" height="18" viewBox="156 -145 18 18" fill="none"><path d="M158.000,-127.000C157.450,-127.000,156.979,-127.196,156.588,-127.587C156.197,-127.978,156.001,-128.449,156.000,-129.000L156.000,-143.000C156.000,-143.550,156.196,-144.021,156.588,-144.412C156.980,-144.803,157.451,-144.999,158.000,-145.000L172.000,-145.000C172.550,-145.000,173.021,-144.804,173.413,-144.412C173.805,-144.020,174.001,-143.549,174.000,-143.000L174.000,-129.000C174.000,-128.450,173.804,-127.979,173.413,-127.587C173.022,-127.195,172.551,-126.999,172.000,-127.000ZM159.000,-131.000L171.000,-131.000L167.250,-136.000L164.250,-132.000L162.000,-135.000Z" style="fill: rgb(0, 0, 0); fill-opacity: 1;" class="fills"/></svg>