<svg width="29" xmlns="http://www.w3.org/2000/svg" height="29" fill="none"><g style="fill: rgb(0, 0, 0);"><path d="M7.250,22.958L11.711,22.958L11.711,16.824C11.711,16.547,11.805,16.316,11.993,16.129C12.180,15.941,12.411,15.847,12.688,15.847L16.313,15.847C16.589,15.847,16.821,15.941,17.008,16.129C17.195,16.316,17.289,16.547,17.289,16.824L17.289,22.958L21.750,22.958L21.750,12.455C21.750,12.331,21.723,12.219,21.669,12.117C21.615,12.016,21.541,11.927,21.448,11.851L14.942,6.948C14.818,6.840,14.671,6.786,14.500,6.786C14.329,6.786,14.182,6.840,14.059,6.948L7.552,11.851C7.459,11.929,7.386,12.017,7.331,12.117C7.276,12.217,7.249,12.330,7.250,12.455ZM6.042,22.958L6.042,12.455C6.042,12.146,6.111,11.853,6.249,11.577C6.388,11.301,6.579,11.073,6.822,10.894L13.329,5.967C13.670,5.707,14.059,5.576,14.496,5.576C14.934,5.576,15.325,5.707,15.671,5.967L22.178,10.893C22.422,11.072,22.613,11.300,22.750,11.577C22.889,11.853,22.958,12.146,22.958,12.455L22.958,22.958C22.958,23.282,22.838,23.565,22.597,23.805C22.356,24.046,22.074,24.167,21.750,24.167L17.057,24.167C16.780,24.167,16.548,24.073,16.361,23.886C16.174,23.699,16.080,23.467,16.080,23.190L16.080,17.057L12.919,17.057L12.919,23.190C12.919,23.467,12.826,23.699,12.639,23.886C12.452,24.073,12.221,24.167,11.944,24.167L7.250,24.167C6.926,24.167,6.644,24.046,6.403,23.805C6.162,23.565,6.042,23.282,6.042,22.958ZM14.500,14.849" style="fill: rgb(151, 151, 151); fill-opacity: 1;" class="fills"/></g></svg>