<svg width="24" xmlns="http://www.w3.org/2000/svg" height="24" fill="none"><path d="M13.714,1.714C13.714,0.768,12.947,0.000,12.000,0.000C11.053,0.000,10.286,0.768,10.286,1.714L10.286,10.286L1.714,10.286C0.768,10.286,0.000,11.053,0.000,12.000C0.000,12.947,0.768,13.714,1.714,13.714L10.286,13.714L10.286,22.286C10.286,23.232,11.053,24.000,12.000,24.000C12.947,24.000,13.714,23.232,13.714,22.286L13.714,13.714L22.286,13.714C23.232,13.714,24.000,12.947,24.000,12.000C24.000,11.053,23.232,10.286,22.286,10.286L13.714,10.286Z" fill-rule="evenodd" clip-rule="evenodd" class="fills" style="fill: rgb(0, 0, 0);"/></svg>