<svg width="24" xmlns="http://www.w3.org/2000/svg" height="24" fill="none"><g style="fill: rgb(0, 0, 0);"><path d="M7.800,7.200C7.800,8.194,6.994,9.000,6.000,9.000C5.006,9.000,4.200,8.194,4.200,7.200C4.200,6.206,5.006,5.400,6.000,5.400C6.994,5.400,7.800,6.206,7.800,7.200ZM7.800,12.000C7.800,12.994,6.994,13.800,6.000,13.800C5.006,13.800,4.200,12.994,4.200,12.000C4.200,11.006,5.006,10.200,6.000,10.200C6.994,10.200,7.800,11.006,7.800,12.000ZM7.800,16.800C7.800,17.794,6.994,18.600,6.000,18.600C5.006,18.600,4.200,17.794,4.200,16.800C4.200,15.806,5.006,15.000,6.000,15.000C6.994,15.000,7.800,15.806,7.800,16.800Z" style="fill: rgb(151, 151, 151); fill-opacity: 1;" class="fills"/><path d="M9.000,7.200C9.000,6.537,9.537,6.000,10.200,6.000L18.600,6.000C19.263,6.000,19.800,6.537,19.800,7.200C19.800,7.863,19.263,8.400,18.600,8.400L10.200,8.400C9.537,8.400,9.000,7.863,9.000,7.200ZM9.000,12.000C9.000,11.337,9.537,10.800,10.200,10.800L18.600,10.800C19.263,10.800,19.800,11.337,19.800,12.000C19.800,12.663,19.263,13.200,18.600,13.200L10.200,13.200C9.537,13.200,9.000,12.663,9.000,12.000ZM9.000,16.800C9.000,16.137,9.537,15.600,10.200,15.600L18.600,15.600C19.263,15.600,19.800,16.137,19.800,16.800C19.800,17.463,19.263,18.000,18.600,18.000L10.200,18.000C9.537,18.000,9.000,17.463,9.000,16.800Z" fill-rule="evenodd" clip-rule="evenodd" style="fill: rgb(151, 151, 151); fill-opacity: 1;" class="fills"/></g></svg>